# xmcd CD database file
#
# Track frame offsets:
#	150
#	21781
#	44728
#	69432
#	88147
#	103997
#	126914
#	145464
#	166683
#
# Disc length: 2462 seconds
#
# Revision: 0
# Processed by: cddbd v1.5.2PL0 Copyright (c) Steve Scherf et al.
# Submitted via: CDex 1.70beta2
#
DISCID=81099c09
DTITLE=Jazzaffair - A marvelous day
DYEAR=2008
DGENRE=Jazz
TTITLE0=A marvelous day
TTITLE1=Leafy samba
TTITLE2=You make me smile
TTITLE3=Poderino
TTITLE4=Till
TTITLE5=A minute´s silence
TTITLE6=House of orange
TTITLE7=Leaving train
TTITLE8=The summer`s gone
EXTD=YEAR: 2008
EXTT0=
EXTT1=
EXTT2=
EXTT3=
EXTT4=
EXTT5=
EXTT6=
EXTT7=
EXTT8=
PLAYORDER=
